<svg width="263" height="32" viewBox="0 0 263 32" fill="none" xmlns="http://www.w3.org/2000/svg">
<rect x="24" width="32" height="32" rx="7" fill="#8A00F5"/>
<path d="M38.7784 22.5H34.1378V9.40909H38.8168C40.1335 9.40909 41.267 9.67116 42.2173 10.1953C43.1676 10.7152 43.8984 11.4631 44.4098 12.4389C44.9254 13.4148 45.1832 14.5824 45.1832 15.9418C45.1832 17.3054 44.9254 18.4773 44.4098 19.4574C43.8984 20.4375 43.1634 21.1896 42.2045 21.7138C41.25 22.2379 40.108 22.5 38.7784 22.5ZM36.9055 20.1286H38.6634C39.4815 20.1286 40.1697 19.9837 40.728 19.6939C41.2905 19.3999 41.7124 18.946 41.9936 18.3324C42.2791 17.7145 42.4219 16.9176 42.4219 15.9418C42.4219 14.9744 42.2791 14.1839 41.9936 13.5703C41.7124 12.9567 41.2926 12.505 40.7344 12.2152C40.1761 11.9254 39.4879 11.7805 38.6697 11.7805H36.9055V20.1286Z" fill="#FDFDFD"/>
<path d="M71.1563 23.5815H66V9.03604H71.1989C72.6619 9.03604 73.9214 9.32724 74.9773 9.90962C76.0331 10.4873 76.8452 11.3182 77.4134 12.4025C77.9863 13.4868 78.2727 14.7842 78.2727 16.2946C78.2727 17.8097 77.9863 19.1118 77.4134 20.2008C76.8452 21.2898 76.0284 22.1255 74.9631 22.7079C73.9025 23.2903 72.6335 23.5815 71.1563 23.5815ZM69.0753 20.9466H71.0284C71.9375 20.9466 72.7022 20.7856 73.3224 20.4636C73.9474 20.1369 74.4162 19.6326 74.7287 18.9508C75.0459 18.2643 75.2045 17.3788 75.2045 16.2946C75.2045 15.2198 75.0459 14.3414 74.7287 13.6596C74.4162 12.9778 73.9498 12.4759 73.3295 12.1539C72.7093 11.832 71.9446 11.671 71.0355 11.671H69.0753V20.9466Z" fill="#181D27"/>
<path d="M85.4656 23.7946C84.3434 23.7946 83.3775 23.5673 82.5678 23.1127C81.7629 22.6535 81.1426 22.0048 80.707 21.1667C80.2714 20.3239 80.0536 19.3272 80.0536 18.1767C80.0536 17.0545 80.2714 16.0697 80.707 15.2221C81.1426 14.3746 81.7558 13.7141 82.5465 13.2406C83.342 12.7671 84.2747 12.5304 85.3448 12.5304C86.0645 12.5304 86.7345 12.6464 87.3548 12.8784C87.9798 13.1056 88.5243 13.4489 88.9883 13.9082C89.457 14.3675 89.8216 14.9451 90.082 15.6412C90.3424 16.3324 90.4727 17.1421 90.4727 18.0701V18.9011H81.261V17.0261H87.6246C87.6246 16.5905 87.5299 16.2046 87.3406 15.8684C87.1512 15.5323 86.8884 15.2695 86.5522 15.0801C86.2208 14.886 85.8349 14.7889 85.3945 14.7889C84.9353 14.7889 84.5281 14.8954 84.1729 15.1085C83.8226 15.3168 83.5479 15.5985 83.3491 15.9537C83.1502 16.304 83.0484 16.6947 83.0437 17.1255V18.9082C83.0437 19.448 83.1431 19.9144 83.342 20.3074C83.5456 20.7003 83.832 21.0034 84.2013 21.2164C84.5707 21.4295 85.0086 21.536 85.5153 21.536C85.8514 21.536 86.1592 21.4887 86.4386 21.394C86.7179 21.2993 86.957 21.1573 87.1559 20.9679C87.3548 20.7785 87.5063 20.5465 87.6104 20.2718L90.4087 20.4565C90.2667 21.1288 89.9755 21.716 89.5352 22.2179C89.0996 22.715 88.5361 23.1033 87.8448 23.3826C87.1583 23.6573 86.3652 23.7946 85.4656 23.7946Z" fill="#181D27"/>
<path d="M92.4471 23.5815V12.6724H95.3306V14.5971H95.4585C95.6857 13.9579 96.0645 13.4537 96.5948 13.0843C97.1251 12.715 97.7596 12.5304 98.4982 12.5304C99.2463 12.5304 99.8832 12.7174 100.409 13.0914C100.934 13.4608 101.285 13.9627 101.46 14.5971H101.574C101.796 13.9721 102.199 13.4726 102.781 13.0985C103.368 12.7198 104.062 12.5304 104.862 12.5304C105.88 12.5304 106.706 12.8547 107.341 13.5034C107.98 14.1473 108.299 15.0611 108.299 16.2449V23.5815H105.281V16.8414C105.281 16.2354 105.12 15.7808 104.798 15.4778C104.476 15.1748 104.074 15.0233 103.591 15.0233C103.041 15.0233 102.613 15.1985 102.305 15.5488C101.997 15.8945 101.843 16.3514 101.843 16.9196V23.5815H98.9102V16.7775C98.9102 16.2425 98.7563 15.8163 98.4485 15.4991C98.1455 15.1819 97.7454 15.0233 97.2482 15.0233C96.9121 15.0233 96.609 15.1085 96.3391 15.2789C96.074 15.4447 95.8633 15.679 95.707 15.9821C95.5508 16.2804 95.4727 16.6307 95.4727 17.0332V23.5815H92.4471Z" fill="#181D27"/>
<path d="M115.618 23.7946C114.515 23.7946 113.561 23.5602 112.756 23.0914C111.956 22.618 111.338 21.9598 110.902 21.117C110.467 20.2695 110.249 19.287 110.249 18.1696C110.249 17.0427 110.467 16.0578 110.902 15.215C111.338 14.3675 111.956 13.7093 112.756 13.2406C113.561 12.7671 114.515 12.5304 115.618 12.5304C116.721 12.5304 117.673 12.7671 118.473 13.2406C119.278 13.7093 119.899 14.3675 120.334 15.215C120.77 16.0578 120.988 17.0427 120.988 18.1696C120.988 19.287 120.77 20.2695 120.334 21.117C119.899 21.9598 119.278 22.618 118.473 23.0914C117.673 23.5602 116.721 23.7946 115.618 23.7946ZM115.632 21.4508C116.134 21.4508 116.553 21.3088 116.89 21.0247C117.226 20.7359 117.479 20.3429 117.65 19.8457C117.825 19.3485 117.912 18.7827 117.912 18.1483C117.912 17.5138 117.825 16.948 117.65 16.4508C117.479 15.9537 117.226 15.5607 116.89 15.2718C116.553 14.983 116.134 14.8386 115.632 14.8386C115.126 14.8386 114.7 14.983 114.354 15.2718C114.013 15.5607 113.755 15.9537 113.58 16.4508C113.409 16.948 113.324 17.5138 113.324 18.1483C113.324 18.7827 113.409 19.3485 113.58 19.8457C113.755 20.3429 114.013 20.7359 114.354 21.0247C114.7 21.3088 115.126 21.4508 115.632 21.4508Z" fill="#181D27"/>
<path d="M123.012 23.5815V9.03604H132.642V11.5716H126.087V15.0375H132.003V17.573H126.087V23.5815H123.012Z" fill="#181D27"/>
<path d="M134.654 23.5815V12.6724H137.68V23.5815H134.654ZM136.174 11.2662C135.724 11.2662 135.338 11.117 135.016 10.8187C134.699 10.5157 134.54 10.1535 134.54 9.73207C134.54 9.3154 134.699 8.95792 135.016 8.65962C135.338 8.35659 135.724 8.20508 136.174 8.20508C136.624 8.20508 137.007 8.35659 137.325 8.65962C137.647 8.95792 137.808 9.3154 137.808 9.73207C137.808 10.1535 137.647 10.5157 137.325 10.8187C137.007 11.117 136.624 11.2662 136.174 11.2662Z" fill="#181D27"/>
<path d="M143.129 17.2747V23.5815H140.103V12.6724H142.987V14.5971H143.115C143.356 13.9627 143.761 13.4608 144.329 13.0914C144.897 12.7174 145.586 12.5304 146.396 12.5304C147.154 12.5304 147.814 12.6961 148.377 13.0275C148.941 13.359 149.379 13.8324 149.691 14.448C150.004 15.0588 150.16 15.7879 150.16 16.6355V23.5815H147.135V17.1752C147.139 16.5076 146.969 15.9868 146.623 15.6127C146.278 15.234 145.802 15.0446 145.196 15.0446C144.788 15.0446 144.429 15.1322 144.116 15.3074C143.808 15.4825 143.567 15.7382 143.392 16.0744C143.221 16.4058 143.134 16.8059 143.129 17.2747Z" fill="#181D27"/>
</svg>
