<svg width="48" height="48" viewBox="0 0 48 48" fill="none" xmlns="http://www.w3.org/2000/svg">
<rect width="48" height="48" rx="10.5" fill="#6941C6"/>
<path d="M22.6676 34H15.7067V14.3636H22.7251C24.7003 14.3636 26.4006 14.7567 27.826 15.543C29.2514 16.3228 30.3477 17.4446 31.1147 18.9084C31.8881 20.3722 32.2749 22.1236 32.2749 24.1626C32.2749 26.2081 31.8881 27.9659 31.1147 29.4361C30.3477 30.9062 29.245 32.0344 27.8068 32.8207C26.375 33.6069 24.6619 34 22.6676 34ZM19.8583 30.4428H22.495C23.7223 30.4428 24.7546 30.2255 25.592 29.7908C26.4357 29.3498 27.0685 28.669 27.4904 27.7486C27.9187 26.8217 28.1328 25.6264 28.1328 24.1626C28.1328 22.7116 27.9187 21.5259 27.4904 20.6055C27.0685 19.685 26.4389 19.0075 25.6016 18.5728C24.7642 18.1381 23.7319 17.9208 22.5046 17.9208H19.8583V30.4428Z" fill="#FDFDFD"/>
</svg>
